<svg width="118" height="38" viewBox="0 0 118 38" fill="none" xmlns="http://www.w3.org/2000/svg">
<path d="M40.9917 36.9877C40.2862 36.9877 39.678 36.8775 39.1671 36.6569C38.6561 36.4282 38.2385 36.1096 37.9141 35.7011C37.5978 35.2845 37.3667 34.8025 37.2207 34.2551H36.43L37.1234 31.9882C37.1559 32.6581 37.3059 33.2176 37.5735 33.667C37.8411 34.1081 38.2061 34.4389 38.6683 34.6595C39.1306 34.8801 39.6577 34.9904 40.2497 34.9904C41.158 34.9904 41.8514 34.7249 42.3298 34.1939C42.8083 33.6547 43.0475 32.8541 43.0475 31.7921V29.5497C43.0475 28.5203 42.8042 27.7402 42.3177 27.2092C41.8392 26.6782 41.1418 26.4127 40.2254 26.4127C39.6658 26.4127 39.1711 26.5189 38.7413 26.7313C38.3115 26.9437 37.9547 27.2337 37.6708 27.6013C37.3951 27.9608 37.2005 28.3733 37.0869 28.8389L36.5638 27.1969H37.2451C37.3829 26.6904 37.5978 26.233 37.8898 25.8245C38.1898 25.4079 38.5994 25.077 39.1184 24.8319C39.6374 24.5869 40.2943 24.4643 41.089 24.4643C42.5082 24.4643 43.5868 24.9136 44.3248 25.8123C45.0709 26.7109 45.4439 28.022 45.4439 29.7457V31.6451C45.4439 33.3851 45.0668 34.7126 44.3126 35.6276C43.5584 36.5343 42.4515 36.9877 40.9917 36.9877ZM34.8 36.7182V20.4941H37.1721V24.3173L37.1112 27.7606L37.1234 28.1772V33.1523L37.0869 33.912L37.1842 36.7182H34.8Z" fill="black"/>
<path d="M50.2482 24.7339V32.1352C50.2482 32.7071 50.3252 33.2095 50.4793 33.6424C50.6415 34.0672 50.9051 34.3981 51.27 34.635C51.6349 34.8719 52.1256 34.9904 52.7419 34.9904C53.3258 34.9904 53.8245 34.8842 54.2381 34.6718C54.6598 34.4594 55.0045 34.1734 55.2721 33.814C55.5397 33.4464 55.7263 33.0379 55.8317 32.5886L56.221 34.2551H55.71C55.5722 34.7535 55.3451 35.2109 55.0288 35.6276C54.7126 36.0442 54.2909 36.375 53.7637 36.6201C53.2366 36.8652 52.5838 36.9877 51.8052 36.9877C50.8807 36.9877 50.1265 36.8121 49.5426 36.4608C48.9668 36.1014 48.5411 35.5826 48.2654 34.9046C47.9977 34.2184 47.8639 33.3851 47.8639 32.4048V24.7339H50.2482ZM58.1308 24.7339V36.7182H55.7465L55.8439 33.912L55.7465 33.765V24.7339H58.1308Z" fill="black"/>
<path d="M65.0534 36.9877C63.6342 36.9877 62.5515 36.5384 61.8054 35.6398C61.0674 34.7412 60.6985 33.43 60.6985 31.7063V29.807C60.6985 28.067 61.0715 26.7435 61.8176 25.8368C62.5718 24.9218 63.6828 24.4643 65.1507 24.4643C65.8562 24.4643 66.4604 24.5787 66.9632 24.8074C67.4741 25.028 67.8877 25.3425 68.204 25.751C68.5284 26.1594 68.7595 26.6414 68.8973 27.1969H69.688L69.019 29.4149C68.9947 28.7613 68.8527 28.214 68.5932 27.7729C68.3337 27.3236 67.9769 26.9845 67.5228 26.7558C67.0686 26.5271 66.5374 26.4127 65.9292 26.4127C65.0128 26.4127 64.3113 26.6782 63.8247 27.2092C63.3382 27.7402 63.0949 28.5285 63.0949 29.5742V31.8656C63.0949 32.8868 63.3341 33.6629 63.8126 34.1939C64.2992 34.7249 65.0047 34.9904 65.9292 34.9904C66.4888 34.9904 66.9794 34.8842 67.4011 34.6718C67.8309 34.4594 68.1877 34.1694 68.4716 33.8017C68.7554 33.4341 68.9501 33.0216 69.0555 32.5641L69.6151 34.2551H68.9217C68.7919 34.7535 68.573 35.2109 68.2648 35.6276C67.9647 36.0442 67.5552 36.375 67.0362 36.6201C66.5172 36.8652 65.8562 36.9877 65.0534 36.9877ZM68.9582 36.7182L69.0555 33.912L69.019 33.1523V28.1772L69.0312 27.7116L68.9703 24.3173V20.4941H71.3424V36.7182H68.9582Z" fill="black"/>
<path d="M78.2633 36.9877C76.8441 36.9877 75.7614 36.5384 75.0153 35.6398C74.2774 34.7412 73.9084 33.43 73.9084 31.7063V29.807C73.9084 28.067 74.2814 26.7435 75.0275 25.8368C75.7817 24.9218 76.8927 24.4643 78.3606 24.4643C79.0661 24.4643 79.6703 24.5787 80.1731 24.8074C80.684 25.028 81.0976 25.3425 81.4139 25.751C81.7383 26.1594 81.9694 26.6414 82.1073 27.1969H82.8979L82.2289 29.4149C82.2046 28.7613 82.0627 28.214 81.8031 27.7729C81.5436 27.3236 81.1868 26.9845 80.7327 26.7558C80.2785 26.5271 79.7473 26.4127 79.1391 26.4127C78.2227 26.4127 77.5212 26.6782 77.0347 27.2092C76.5481 27.7402 76.3048 28.5285 76.3048 29.5742V31.8656C76.3048 32.8868 76.544 33.6629 77.0225 34.1939C77.5091 34.7249 78.2146 34.9904 79.1391 34.9904C79.6987 34.9904 80.1893 34.8842 80.611 34.6718C81.0408 34.4594 81.3977 34.1694 81.6815 33.8017C81.9653 33.4341 82.16 33.0216 82.2654 32.5641L82.825 34.2551H82.1316C82.0018 34.7535 81.7829 35.2109 81.4747 35.6276C81.1746 36.0442 80.7651 36.375 80.2461 36.6201C79.7271 36.8652 79.0661 36.9877 78.2633 36.9877ZM82.1681 36.7182L82.2654 33.912L82.2289 33.1523V28.1772L82.2411 27.7116L82.1802 24.3173V20.4941H84.5523V36.7182H82.1681Z" fill="black"/>
<path d="M87.6049 36.7182V24.7339H89.9891V36.7182H87.6049ZM88.797 22.9694C88.3266 22.9694 87.9739 22.8509 87.7387 22.614C87.5116 22.3689 87.3981 22.034 87.3981 21.6092V21.5602C87.3981 21.1354 87.5116 20.8045 87.7387 20.5676C87.9739 20.3225 88.3266 20.2 88.797 20.2C89.2673 20.2 89.6161 20.3225 89.8431 20.5676C90.0783 20.8045 90.1959 21.1354 90.1959 21.5602V21.6092C90.1959 22.0422 90.0783 22.3771 89.8431 22.614C89.6161 22.8509 89.2673 22.9694 88.797 22.9694Z" fill="black"/>
<path d="M98.2515 37C96.3538 37 94.9306 36.5466 93.9817 35.6398C93.041 34.7249 92.5706 33.4096 92.5706 31.6941V29.7335C92.5706 28.0424 93.0086 26.7354 93.8844 25.8123C94.7684 24.881 96.0538 24.4153 97.7406 24.4153C98.884 24.4153 99.8369 24.6277 100.599 25.0525C101.362 25.4691 101.933 26.0614 102.314 26.8293C102.696 27.5972 102.886 28.5081 102.886 29.5619V30.0153C102.886 30.2931 102.874 30.5749 102.85 30.8608C102.825 31.1468 102.793 31.4204 102.752 31.6818H100.563C100.579 31.257 100.587 30.8567 100.587 30.481C100.595 30.1052 100.599 29.7621 100.599 29.4516C100.599 28.7899 100.494 28.2303 100.283 27.7729C100.072 27.3154 99.7558 26.9682 99.3341 26.7313C98.9124 26.4862 98.3812 26.3637 97.7406 26.3637C96.7917 26.3637 96.0862 26.6373 95.6239 27.1847C95.1617 27.7238 94.9306 28.4958 94.9306 29.5007V30.628L94.9427 30.9098V31.9759C94.9427 32.4252 95.0076 32.8337 95.1374 33.2013C95.2752 33.5689 95.4901 33.8875 95.7821 34.1571C96.0821 34.4185 96.4674 34.6228 96.9377 34.7698C97.4081 34.9087 97.9798 34.9781 98.6529 34.9781C99.4152 34.9781 100.129 34.8801 100.794 34.684C101.467 34.488 102.1 34.2265 102.692 33.8998L102.473 35.9462C101.937 36.2648 101.313 36.5221 100.599 36.7182C99.8937 36.906 99.1111 37 98.2515 37ZM93.8358 31.6818V29.8805H102.266V31.6818H93.8358Z" fill="black"/>
<path d="M109.231 37C108.275 37 107.435 36.902 106.713 36.7059C105.992 36.5017 105.387 36.2811 104.901 36.0442L104.682 33.8508C105.282 34.153 105.943 34.4185 106.665 34.6473C107.387 34.8678 108.198 34.9781 109.098 34.9781C109.965 34.9781 110.606 34.8515 111.02 34.5982C111.441 34.3368 111.652 33.9529 111.652 33.4464V33.3484C111.652 33.0216 111.567 32.752 111.397 32.5396C111.226 32.319 110.922 32.123 110.484 31.9514C110.055 31.7799 109.442 31.6042 108.648 31.4245C107.65 31.1958 106.863 30.9262 106.288 30.6158C105.712 30.3053 105.298 29.9255 105.047 29.4761C104.804 29.0187 104.682 28.4713 104.682 27.8341V27.7238C104.682 26.6455 105.055 25.8286 105.801 25.2731C106.547 24.7176 107.666 24.4398 109.158 24.4398C110.099 24.4398 110.918 24.5419 111.616 24.7462C112.313 24.9504 112.889 25.1832 113.343 25.4446L113.562 27.442C113.019 27.1479 112.398 26.9028 111.701 26.7068C111.012 26.5025 110.245 26.4004 109.402 26.4004C108.826 26.4004 108.364 26.4576 108.015 26.572C107.666 26.6782 107.415 26.8334 107.261 27.0376C107.107 27.2337 107.03 27.4706 107.03 27.7484V27.8341C107.03 28.1364 107.111 28.4019 107.273 28.6306C107.435 28.8512 107.723 29.0513 108.137 29.2311C108.558 29.4026 109.142 29.5701 109.888 29.7335C110.894 29.9459 111.697 30.195 112.297 30.481C112.897 30.7669 113.331 31.1345 113.599 31.5838C113.866 32.0249 114 32.5968 114 33.2993V33.4831C114 34.6513 113.603 35.5295 112.808 36.1177C112.013 36.7059 110.821 37 109.231 37Z" fill="black"/>
<path d="M35.7481 17.4936C34.8062 17.4936 34.0495 17.353 33.4779 17.0716C32.9063 16.7823 32.4917 16.3522 32.234 15.7816C31.9764 15.2028 31.8476 14.4835 31.8476 13.6234V6.41347H34.1903V13.3461C34.1903 14.0695 34.3554 14.6 34.6855 14.9376C35.0155 15.2752 35.571 15.444 36.3519 15.444C36.8189 15.444 37.2657 15.3957 37.6924 15.2993C38.119 15.2028 38.5135 15.0662 38.8758 14.8894L38.6705 16.8908C38.2841 17.0837 37.8373 17.2324 37.3301 17.3369C36.8229 17.4414 36.2956 17.4936 35.7481 17.4936ZM30 7.48652V5.60567H38.7671L38.5618 7.48652H30ZM31.8718 5.81064L31.8597 2.56738L34.2266 2.29007L34.13 5.81064H31.8718Z" fill="black"/>
<path d="M43.175 10.127L42.6678 8.28227H43.2475C43.497 7.34988 43.9157 6.61844 44.5034 6.08794C45.0911 5.54941 45.8921 5.28014 46.9065 5.28014C47.148 5.28014 47.3613 5.30024 47.5465 5.34043C47.7397 5.37258 47.9128 5.41277 48.0658 5.46099L48.2107 7.76383C48.0175 7.69953 47.8001 7.6513 47.5586 7.61915C47.3171 7.57896 47.0554 7.55886 46.7736 7.55886C45.9122 7.55886 45.1675 7.77991 44.5396 8.22199C43.9116 8.66407 43.4568 9.29905 43.175 10.127ZM40.9047 17.2525V5.46099H43.2112L43.1026 8.89716L43.2716 9.06596V17.2525H40.9047Z" fill="black"/>
<path d="M50.0451 17.2525V5.46099H52.412V17.2525H50.0451ZM51.2285 3.72482C50.7616 3.72482 50.4114 3.60827 50.1779 3.37518C49.9525 3.13404 49.8398 2.80449 49.8398 2.38652V2.3383C49.8398 1.92033 49.9525 1.5948 50.1779 1.3617C50.4114 1.12057 50.7616 1 51.2285 1C51.6955 1 52.0416 1.12057 52.267 1.3617C52.5005 1.5948 52.6172 1.92033 52.6172 2.3383V2.38652C52.6172 2.81253 52.5005 3.14208 52.267 3.37518C52.0416 3.60827 51.6955 3.72482 51.2285 3.72482Z" fill="black"/>
<path d="M61.5802 17.5177C60.8798 17.5177 60.276 17.4092 59.7688 17.1922C59.2697 16.9671 58.8631 16.6537 58.5492 16.2518C58.2352 15.8418 58.0057 15.3676 57.8608 14.8291H57.0759L57.7401 12.5986C57.7642 13.2577 57.9051 13.8083 58.1627 14.2504C58.4204 14.6844 58.7746 15.0099 59.2254 15.227C59.6843 15.444 60.2116 15.5525 60.8074 15.5525C61.7171 15.5525 62.4135 15.2913 62.8965 14.7688C63.3795 14.2383 63.621 13.4626 63.621 12.4418V10.1872C63.621 9.18251 63.3795 8.41891 62.8965 7.89645C62.4215 7.374 61.7251 7.11277 60.8074 7.11277C60.2599 7.11277 59.7729 7.21726 59.3462 7.42624C58.9195 7.63522 58.5653 7.92057 58.2835 8.28227C58.0098 8.63593 57.8166 9.04184 57.7038 9.5L57.1484 7.8844H57.8367C57.9735 7.38605 58.1909 6.93593 58.4888 6.53404C58.7867 6.12411 59.1932 5.79858 59.7085 5.55745C60.2317 5.31631 60.8879 5.19575 61.6768 5.19575C63.0857 5.19575 64.1564 5.63783 64.889 6.52199C65.6297 7.40615 66 8.69622 66 10.3922V12.261C66 13.973 65.6297 15.2792 64.889 16.1794C64.1484 17.0716 63.0454 17.5177 61.5802 17.5177ZM55.4336 21.4V5.46099H57.8005L57.7038 8.22199L57.7401 8.92128V13.8645L57.728 14.3227L57.7884 17.6624V21.4H55.4336Z" fill="black"/>
<path d="M32.2117 21.1337L29.8838 19.8736C29.6566 16.7398 28.3799 13.8962 26.4084 11.6892L26.7301 10.6082L25.6706 10.9232C24.9824 10.2633 24.2247 9.67299 23.4122 9.16562C23.3724 9.74098 23.2647 10.2981 23.0989 10.8287C26.2791 13.0422 28.3616 16.7249 28.3616 20.8933C28.3616 27.66 22.875 33.1482 16.1067 33.1482C9.33836 33.1482 3.85174 27.6616 3.85174 20.8933C3.85174 16.7249 5.93431 13.0422 9.11452 10.8287C8.94871 10.2981 8.84094 9.74263 8.80114 9.16562C8.1263 9.58512 7.49291 10.061 6.90263 10.5899L5.82155 10.2682L6.13659 11.3278C4.08553 13.465 2.71429 16.2606 2.37439 19.3678L0 20.6529L2.32796 21.913C2.55512 25.0485 3.83185 27.8904 5.80332 30.0974L5.48165 31.1784L6.54117 30.8634C8.67844 32.9144 11.474 34.2857 14.5812 34.6256L15.8663 37L17.1264 34.672C20.2602 34.4449 23.1038 33.1681 25.3107 31.1967L26.3918 31.5183L26.0768 30.4588C28.1278 28.3215 29.4991 25.526 29.839 22.4187L32.2117 21.1337Z" fill="url(#paint0_linear_143_433)"/>
<path d="M22.9744 17.5639L16.1049 24.9523L11.4225 21.1337L5.74188 26.6701C5.86956 26.8989 6.00552 27.1244 6.14811 27.3433L11.4225 22.2214L14.5165 24.6257L12.0294 23.3655L10.8952 24.6804L10.7792 25.9289L9.64503 26.9835L10.3049 26.0085L10.4194 25.1629L7.2408 28.7792C9.41289 31.2216 12.5782 32.7603 16.1049 32.7603C22.2614 32.7603 27.3236 28.0695 27.9106 22.0672L22.9728 17.5672L22.9744 17.5639ZM18.2124 28.4658L15.0504 28.8555L17.3137 27.6451L16.1033 25.8112L21.0593 30.1819L18.2107 28.4642L18.2124 28.4658ZM19.7096 27.199L20.3381 28.6399L19.2785 27.6849L16.677 25.4216L22.9993 18.6052L21.1505 21.9877L21.5153 25.1612L19.708 27.2007L19.7096 27.199ZM23.4304 19.8603L21.9 21.2846L23.3044 18.7875L27.3053 22.5348L23.4287 19.862L23.4304 19.8603Z" fill="url(#paint1_linear_143_433)"/>
<path d="M7.67524 24.1448L5.50148 26.2158C4.92447 25.0667 4.52652 23.8116 4.34911 22.4884L6.51955 23.6209L4.24465 21.1885C4.24465 21.0906 4.24133 20.9911 4.24133 20.8933C4.24133 20.7673 4.24133 20.6396 4.24797 20.5136L7.67524 24.1448Z" fill="url(#paint2_linear_143_433)"/>
<path d="M16.1052 21.6494C16.8671 21.6494 17.4848 21.0318 17.4848 20.2699C17.4848 19.508 16.8671 18.8903 16.1052 18.8903C15.3433 18.8903 14.7257 19.508 14.7257 20.2699C14.7257 21.0318 15.3433 21.6494 16.1052 21.6494Z" fill="url(#paint3_linear_143_433)"/>
<path d="M16.1051 2.2C12.5485 2.2 9.66504 5.08342 9.66504 8.64002C9.66504 10.3993 10.3714 11.991 11.5138 13.155L15.9393 17.7181C16.0304 17.8109 16.1797 17.8109 16.2709 17.7181L20.6963 13.155C21.2684 12.5747 21.7293 11.8849 22.0493 11.1205C22.3677 10.3578 22.5434 9.52047 22.5434 8.64002C22.5434 5.08342 19.66 2.2 16.1034 2.2L16.1051 2.2ZM16.1051 13.4402C13.4538 13.4402 11.3049 11.2913 11.3049 8.64002C11.3049 5.98873 13.4538 3.83985 16.1051 3.83985C18.7563 3.83985 20.9052 5.98873 20.9052 8.64002C20.9052 11.2913 18.7563 13.4402 16.1051 13.4402Z" fill="url(#paint4_linear_143_433)"/>
<defs>
<linearGradient id="paint0_linear_143_433" x1="5.23467" y1="13.3406" x2="25.8083" y2="35.1339" gradientUnits="userSpaceOnUse">
<stop stop-color="#EB662B"/>
<stop offset="1" stop-color="#F28555"/>
</linearGradient>
<linearGradient id="paint1_linear_143_433" x1="9.34429" y1="19.8432" x2="20.1409" y2="34.2592" gradientUnits="userSpaceOnUse">
<stop stop-color="#EB662B"/>
<stop offset="1" stop-color="#F28555"/>
</linearGradient>
<linearGradient id="paint2_linear_143_433" x1="4.79961" y1="21.3689" x2="8.37004" y2="23.3379" gradientUnits="userSpaceOnUse">
<stop stop-color="#EB662B"/>
<stop offset="1" stop-color="#F28555"/>
</linearGradient>
<linearGradient id="paint3_linear_143_433" x1="15.1741" y1="19.3042" x2="17.2088" y2="21.1666" gradientUnits="userSpaceOnUse">
<stop stop-color="#EB662B"/>
<stop offset="1" stop-color="#F28555"/>
</linearGradient>
<linearGradient id="paint4_linear_143_433" x1="11.7578" y1="4.53806" x2="22.862" y2="12.9351" gradientUnits="userSpaceOnUse">
<stop stop-color="#EB662B"/>
<stop offset="1" stop-color="#F28555"/>
</linearGradient>
</defs>
</svg>
