<svg width="149" height="69" viewBox="0 0 149 69" fill="none" xmlns="http://www.w3.org/2000/svg">
<g clip-path="url(#clip0_88_387)">
<path d="M51.443 46.9519C53.47 46.9519 55.1051 47.6319 56.3483 48.9893C57.5915 50.3467 58.2118 52.1167 58.2118 54.2969C58.2118 55.727 57.9212 57.0039 57.3372 58.1303C56.7532 59.2567 55.9253 60.1314 54.8508 60.7621C53.7763 61.3928 52.559 61.7042 51.2016 61.7042C50.096 61.7042 48.9851 61.4265 47.8717 60.8685V68.5951H44.1317V47.2296H47.8432V48.1432C48.9696 47.3516 50.1687 46.9571 51.4482 46.9571L51.443 46.9519ZM47.8717 58.1277C48.8035 58.665 49.6755 58.9349 50.4879 58.9349C51.6636 58.9349 52.6057 58.5144 53.3169 57.6735C54.028 56.8326 54.381 55.7477 54.381 54.4189C54.381 52.968 54.0644 51.8338 53.4311 51.0137C52.7978 50.1935 51.8972 49.7809 50.7319 49.7809C50.2958 49.7809 49.8754 49.8535 49.4705 50.0015C49.0656 50.1494 48.5335 50.4609 47.8743 50.9358L47.8717 58.1277Z" fill="black"/>
<path d="M65.056 40.183V61.4291H61.316V40.183H65.056Z" fill="black"/>
<path d="M74.0283 46.9519C75.8529 46.9519 77.2466 47.3386 78.2095 48.1146C79.1724 48.8906 79.6552 49.9729 79.6552 51.3615V58.312C79.6552 58.8493 79.8732 59.1192 80.3092 59.1192C80.4909 59.1192 80.7479 59.0413 81.0775 58.883C81.4071 58.7247 81.6822 58.5456 81.9054 58.3432V60.5025C80.5973 61.3045 79.4008 61.7042 78.3159 61.7042C77.6463 61.7042 77.1324 61.5926 76.7717 61.3694C76.4109 61.1462 76.1618 60.7517 76.019 60.1833C74.5889 61.1981 73.1537 61.7042 71.7158 61.7042C70.6906 61.7042 69.8134 61.359 69.0763 60.6712C68.3392 59.9835 67.9732 59.1555 67.9732 58.1926C67.9732 56.965 68.3392 55.9969 69.0685 55.2883C69.7978 54.5798 71.0747 53.9595 72.9019 53.4326L75.9282 52.5502V51.8961C75.9282 50.5076 75.0873 49.812 73.4028 49.812C72.5411 49.812 71.6847 50.0093 70.8334 50.4064C69.9821 50.8035 69.206 51.3848 68.5079 52.1557V48.7946C70.0599 47.567 71.9001 46.9519 74.0283 46.9519ZM71.7469 57.6268C71.7469 58.1433 71.9105 58.5586 72.2401 58.8726C72.5697 59.1867 72.9772 59.345 73.4651 59.345C74.2853 59.345 75.108 58.9686 75.9282 58.2186V54.4786C74.8848 54.8341 74.0647 55.169 73.4729 55.483C72.8811 55.797 72.4451 56.1163 72.1648 56.4407C71.8845 56.7651 71.7469 57.1596 71.7469 57.6268Z" fill="black"/>
<path d="M92.1859 46.9519C93.7068 46.9519 94.9214 47.4502 95.8272 48.4494C96.733 49.4487 97.1872 50.7645 97.1872 52.397V61.4291H93.4602V52.776C93.4602 51.8546 93.2396 51.1227 92.7984 50.5854C92.3572 50.0482 91.7576 49.7783 90.9972 49.7783C90.4184 49.7783 89.8759 49.947 89.3698 50.287C88.8637 50.627 88.3057 51.1928 87.6958 51.9818V61.4265H83.9558V47.2218H87.6958V49.2151C88.3862 48.4053 89.0921 47.8239 89.8162 47.4735C90.5404 47.1232 91.3294 46.9493 92.1807 46.9493L92.1859 46.9519Z" fill="black"/>
<path d="M109.035 46.9519C110.556 46.9519 111.771 47.4502 112.677 48.4494C113.582 49.4487 114.037 50.7645 114.037 52.397V61.4291H110.31V52.776C110.31 51.8546 110.089 51.1227 109.648 50.5854C109.207 50.0482 108.607 49.7783 107.847 49.7783C107.268 49.7783 106.725 49.947 106.219 50.287C105.713 50.627 105.155 51.1928 104.545 51.9818V61.4265H100.805V47.2218H104.545V49.2151C105.236 48.4053 105.942 47.8239 106.666 47.4735C107.39 47.1232 108.179 46.9493 109.03 46.9493L109.035 46.9519Z" fill="black"/>
<path d="M124.013 46.9519C126.103 46.9519 127.753 47.6215 128.971 48.9581C130.188 50.2948 130.795 52.1479 130.795 54.5097V55.0729H120.743C120.896 56.3395 121.369 57.3154 122.166 58.0006C122.962 58.6857 124.055 59.0283 125.444 59.0283C126.336 59.0283 127.195 58.8726 128.021 58.5638C128.846 58.2549 129.7 57.7851 130.582 57.157V59.9393C128.919 61.1151 126.902 61.7042 124.53 61.7042C122.29 61.7042 120.46 61.0294 119.041 59.6824C117.621 58.3354 116.912 56.5393 116.912 54.2995C116.912 52.1401 117.569 50.3752 118.882 49.0074C120.196 47.6396 121.906 46.9545 124.016 46.9545L124.013 46.9519ZM127.284 52.8071C127.182 51.7742 126.868 50.9644 126.342 50.3804C125.815 49.7964 125.091 49.5058 124.167 49.5058C123.224 49.5058 122.467 49.7835 121.893 50.3415C121.319 50.8995 120.959 51.7196 120.806 52.8045H127.284V52.8071Z" fill="black"/>
<path d="M141.852 46.9519C142.347 46.9519 142.838 47.0635 143.318 47.2867C143.798 47.5099 144.359 47.8836 144.997 48.4131L143.658 51.6833C142.573 50.8735 141.701 50.4661 141.042 50.4661C140.463 50.4661 139.895 50.6815 139.332 51.1123C138.768 51.5432 138.317 52.1141 137.979 52.8227C137.642 53.5312 137.471 54.2424 137.471 54.9509V61.4291H133.731V47.2244H137.471V50.845H137.53C138.21 49.4772 138.893 48.4858 139.583 47.8706C140.274 47.2555 141.032 46.9519 141.852 46.9519Z" fill="black"/>
<path d="M53.7062 22.2331H54.0099V26.0043H58.8763V28.8333H54.0099V35.3867C54.0099 36.0252 54.2019 36.5416 54.5886 36.9387C54.9754 37.3358 55.5022 37.5331 56.1693 37.5331C57.0413 37.5331 58.0457 37.2191 59.1799 36.591V39.5861C57.8303 40.183 56.5638 40.4841 55.3777 40.4841C53.7763 40.4841 52.5253 40.0481 51.6299 39.176C50.7345 38.3039 50.2829 37.123 50.2829 35.6333V28.8359H48.0638V28.2285L53.7062 22.2357V22.2331Z" fill="black"/>
<path d="M69.4318 25.7317C69.9276 25.7317 70.4181 25.8433 70.8982 26.0665C71.3784 26.2897 71.939 26.6635 72.5775 27.193L71.2383 30.4632C70.1534 29.6534 69.2813 29.2459 68.6221 29.2459C68.0433 29.2459 67.4749 29.4613 66.9117 29.8922C66.3485 30.323 65.8969 30.894 65.5595 31.6026C65.2221 32.3111 65.0508 33.0223 65.0508 33.7308V40.209H61.3108V26.0043H65.0508V29.6249H65.1105C65.7905 28.2571 66.4731 27.2656 67.1634 26.6505C67.8538 26.0354 68.6117 25.7317 69.4318 25.7317Z" fill="black"/>
<path d="M76.3201 19.4352C76.8989 19.4352 77.3946 19.6429 77.8098 20.0581C78.2251 20.4734 78.4327 20.9717 78.4327 21.5479C78.4327 22.1059 78.2277 22.5991 77.8176 23.0299C77.4076 23.4607 76.9066 23.6762 76.3201 23.6762C75.7517 23.6762 75.2585 23.4607 74.8381 23.0299C74.4176 22.5991 74.2074 22.1059 74.2074 21.5479C74.2074 20.9588 74.4202 20.4604 74.8459 20.0504C75.2715 19.6403 75.7647 19.4352 76.3201 19.4352ZM78.1914 26.0043V40.209H74.4514V26.0043H78.1914Z" fill="black"/>
<path d="M89.3672 25.7317C91.3943 25.7317 93.0294 26.4117 94.2726 27.7691C95.5158 29.1265 96.1361 30.8966 96.1361 33.0768C96.1361 34.5068 95.8454 35.7838 95.2614 36.9102C94.6775 38.0366 93.8495 38.9113 92.775 39.542C91.7005 40.1726 90.4833 40.4841 89.1259 40.4841C88.0202 40.4841 86.9094 40.2064 85.796 39.6484V47.3749H82.0559V26.0094H85.7674V26.923C86.8938 26.1314 88.0929 25.7369 89.3724 25.7369L89.3672 25.7317ZM85.7934 36.9102C86.7251 37.4474 87.5972 37.7174 88.4095 37.7174C89.5853 37.7174 90.5274 37.2969 91.2385 36.456C91.9497 35.6151 92.3027 34.5302 92.3027 33.2013C92.3027 31.7505 91.986 30.6163 91.3527 29.7962C90.7195 28.976 89.8188 28.5633 88.6535 28.5633C88.2175 28.5633 87.797 28.636 87.3921 28.7839C86.9872 28.9319 86.4552 29.2433 85.796 29.7183L85.7934 36.9102Z" fill="black"/>
<path d="M49.4212 30.6371L45.7772 28.6646C45.4216 23.7592 43.4232 19.3081 40.3372 15.8536L40.8407 14.1614L39.1823 14.6545C38.1052 13.6215 36.919 12.6975 35.6473 11.9033C35.585 12.804 35.4163 13.676 35.1568 14.5066C40.1348 17.9714 43.3946 23.7359 43.3946 30.2607C43.3946 40.8526 34.8064 49.4435 24.2119 49.4435C13.6174 49.4435 5.02915 40.8552 5.02915 30.2607C5.02915 23.7359 8.289 17.9714 13.267 14.5066C13.0075 13.676 12.8388 12.8066 12.7765 11.9033C11.7201 12.56 10.7287 13.3049 9.80472 14.1328L8.11251 13.6293L8.60564 15.2878C5.39511 18.6333 3.2487 23.0091 2.71664 27.8729L-1 29.8844L2.64397 31.8569C2.99954 36.7648 4.99801 41.2134 8.08396 44.6679L7.58045 46.3601L9.23892 45.867C12.5844 49.0775 16.9603 51.2239 21.8241 51.756L23.8355 55.4726L25.8081 51.8286C30.7134 51.4731 35.1645 49.4746 38.619 46.3887L40.3113 46.8922L39.8181 45.2337C43.0287 41.8882 45.1751 37.5123 45.7071 32.6485L49.4212 30.6371Z" fill="black"/>
<path d="M34.9621 25.0491L24.2093 36.6143L16.8798 30.6371L7.98793 39.3032C8.18778 39.6613 8.4006 40.0143 8.62381 40.3569L16.8798 32.3397L21.7229 36.103L17.8298 34.1305L16.0545 36.1887L15.8728 38.143L14.0975 39.7937L15.1305 38.2676L15.3096 36.9439L10.3342 42.6045C13.7342 46.4276 18.6888 48.8361 24.2093 48.8361C33.8461 48.8361 41.7699 41.4937 42.6887 32.0983L34.9595 25.0543L34.9621 25.0491ZM27.5081 42.114L22.5586 42.7239L26.1013 40.8293L24.2067 37.9587L31.9644 44.8003L27.5055 42.1114L27.5081 42.114ZM29.8517 40.1311L30.8354 42.3865L29.1769 40.8916L25.1047 37.3488L35.001 26.6791L32.1071 31.9737L32.6781 36.9413L29.8491 40.1337L29.8517 40.1311ZM35.6758 28.6438L33.2803 30.8733L35.4786 26.9646L41.7413 32.8302L35.6732 28.6464L35.6758 28.6438Z" fill="black"/>
<path d="M11.0142 35.3503L7.61159 38.592C6.70839 36.7934 6.08549 34.8287 5.80778 32.7575L9.20518 34.5302L5.64427 30.7227C5.64427 30.5696 5.63908 30.4139 5.63908 30.2607C5.63908 30.0635 5.63908 29.8636 5.64946 29.6664L11.0142 35.3503Z" fill="black"/>
<path d="M24.2093 31.4442C25.4019 31.4442 26.3687 30.4775 26.3687 29.2849C26.3687 28.0923 25.4019 27.1255 24.2093 27.1255C23.0167 27.1255 22.0499 28.0923 22.0499 29.2849C22.0499 30.4775 23.0167 31.4442 24.2093 31.4442Z" fill="black"/>
<path d="M24.2093 1C18.6421 1 14.1287 5.51343 14.1287 11.0806C14.1287 13.8343 15.2343 16.3259 17.0226 18.1479L23.9497 25.2905C24.0925 25.4359 24.3261 25.4359 24.4688 25.2905L31.396 18.1479C32.2914 17.2395 33.0129 16.1598 33.5139 14.9633C34.0122 13.7695 34.2873 12.4588 34.2873 11.0806C34.2873 5.51343 29.7739 1 24.2067 1H24.2093ZM24.2093 18.5943C20.0592 18.5943 16.6956 15.2307 16.6956 11.0806C16.6956 6.93053 20.0592 3.56687 24.2093 3.56687C28.3594 3.56687 31.723 6.93053 31.723 11.0806C31.723 15.2307 28.3594 18.5943 24.2093 18.5943Z" fill="black"/>
</g>
<defs>
<clipPath id="clip0_88_387">
<rect width="149" height="69" fill="white"/>
</clipPath>
</defs>
</svg>
