<?xml version="1.0" encoding="iso-8859-1"?>
<!-- Generator: Adobe Illustrator 28.5.0, SVG Export Plug-In . SVG Version: 9.03 Build 54727)  -->
<svg version="1.1" id="Layer_1" xmlns="http://www.w3.org/2000/svg" xmlns:xlink="http://www.w3.org/1999/xlink" x="0px" y="0px"
	 width="38px" height="38px" viewBox="0 0 38 38" enable-background="new 0 0 38 38" xml:space="preserve">
<path d="M19,37C9.1,37,1,28.9,1,19S9.1,1,19,1s18,8.1,18,18S28.9,37,19,37z M19,2C9.6,2,2,9.6,2,19s7.6,17,17,17s17-7.6,17-17
	S28.4,2,19,2z"/>
<circle fill="#FFFFFF" cx="19" cy="19" r="17.5"/>
<path d="M13.2,16.3v0.2c0.4,4,2.7,7.1,5.6,7.1s5.3-3.2,5.6-7.3c0-0.3,0.1-0.6,0.1-0.9c0-0.3,0-0.6-0.1-0.9c-0.4-2.8-2.8-5-5.6-5
	c-2.9,0-5.2,2.2-5.6,5c0,0.3-0.1,0.6-0.1,0.9v0.4C13.1,16,13.1,16.1,13.2,16.3z M15.3,13.1c0,0,3.9,1.9,6.6,0c0,0,1.6,2.5,1.1,3.4
	l0.8-0.9c0,0.2,0,0.5-0.1,0.7c-0.3,3.6-2.4,6.4-4.9,6.4s-4.6-2.7-4.9-6.2c0.2,0.1,0.5,0.2,0.8,0.4C14.7,16.9,14.1,13.6,15.3,13.1z"
	/>
<path d="M30.9,31.9c0,0,0-3.7-2.5-6.4c-1.2-1.4-3-2.4-4.9-2.5c0,1.3-2,2.4-4.5,2.4s-4.5-1.1-4.5-2.4c-2,0.2-3.7,1.1-4.9,2.5
	c-2.5,2.7-2.5,6.4-2.5,6.4c3.2,2.9,7.3,4.6,11.9,4.6S27.8,34.7,30.9,31.9z"/>
</svg>
