<?xml version="1.0" encoding="iso-8859-1"?>
<!-- Generator: Adobe Illustrator 28.5.0, SVG Export Plug-In . SVG Version: 9.03 Build 54727)  -->
<svg version="1.1" id="Layer_1" xmlns="http://www.w3.org/2000/svg" xmlns:xlink="http://www.w3.org/1999/xlink" x="0px" y="0px"
	 width="35.852px" height="33.589px" viewBox="0 0 35.852 33.589" enable-background="new 0 0 35.852 33.589" xml:space="preserve">
<g id="AWYHrO_00000038386168772778656330000001142280944305448086_">
	<g>
		<path d="M17.939,15.067c3.264,0,6.529-0.052,9.791,0.014c3.517,0.072,6.639,2.729,7.401,6.162
			c0.143,0.646,0.198,1.298,0.198,1.957c-0.001,2.879,0,5.759-0.001,8.638c0,0.95-0.361,1.31-1.322,1.31
			c-4.443,0.002-8.887-0.007-13.33,0.008c-0.803,0.003-1.373-0.341-1.36-1.374c0.038-2.879,0.008-5.759,0.021-8.638
			c0.002-0.333-0.071-0.454-0.424-0.438c-0.657,0.029-1.317,0.025-1.974,0.001c-0.323-0.012-0.412,0.083-0.41,0.409
			c0.013,2.92,0.008,5.841,0.007,8.761c0,0.875-0.371,1.267-1.238,1.268c-4.512,0.005-9.024,0.004-13.535,0
			c-0.788-0.001-1.218-0.37-1.219-1.075c-0.005-3.167-0.056-6.336,0.028-9.501c0.093-3.515,2.79-6.605,6.234-7.335
			c0.69-0.146,1.383-0.183,2.083-0.183c3.017,0,6.034,0,9.051,0C17.939,15.057,17.939,15.062,17.939,15.067z M13.995,17.134
			c0.057,0.089,0.072,0.126,0.098,0.152c0.892,0.879,1.568,1.897,1.974,3.084c0.077,0.225,0.217,0.234,0.405,0.233
			c1.22-0.004,2.441-0.003,3.661-0.002c0.894,0.001,1.27,0.379,1.271,1.276c0.001,2.92,0.005,5.84-0.006,8.76
			c-0.001,0.318,0.076,0.415,0.406,0.414c3.688-0.012,7.377-0.012,11.065,0c0.316,0.001,0.382-0.091,0.381-0.391
			c-0.012-2.577-0.008-5.155-0.006-7.732c0-0.372-0.049-0.738-0.132-1.098c-0.648-2.832-2.989-4.696-5.893-4.697
			c-2.838-0.001-5.677,0-8.515,0C17.154,17.134,15.605,17.134,13.995,17.134z M8.521,31.046c1.838,0,3.676-0.008,5.513,0.008
			c0.335,0.003,0.438-0.079,0.436-0.427c-0.015-2.496-0.004-4.991-0.013-7.487c-0.001-0.368-0.026-0.743-0.095-1.104
			c-0.613-3.223-3.453-5.26-6.709-4.826c-2.786,0.372-5.016,2.884-5.028,5.689c-0.011,2.592,0.004,5.183-0.011,7.775
			c-0.002,0.318,0.095,0.382,0.393,0.38C4.845,31.039,6.683,31.046,8.521,31.046z"/>
		<path d="M15.14,7.021c0.006,3.67-2.973,6.658-6.625,6.647c-3.622-0.011-6.571-2.965-6.592-6.603
			C1.901,3.427,4.874,0.435,8.514,0.432C12.178,0.43,15.135,3.369,15.14,7.021z M8.505,11.555c2.502,0.015,4.546-1.993,4.563-4.48
			c0.016-2.475-2.01-4.527-4.503-4.56C6.129,2.482,4.038,4.514,4.02,6.931C4.001,9.522,5.958,11.54,8.505,11.555z"/>
		<path d="M33.942,7.046c-0.007,3.642-2.982,6.62-6.618,6.621c-3.652,0.002-6.614-2.992-6.599-6.669
			c0.014-3.667,2.98-6.578,6.689-6.567C30.994,0.443,33.949,3.436,33.942,7.046z M27.328,11.555c2.515,0,4.519-2.001,4.517-4.51
			c-0.001-2.497-2.03-4.531-4.518-4.53c-2.48,0.001-4.529,2.05-4.53,4.529C22.797,9.531,24.829,11.555,27.328,11.555z"/>
	</g>
</g>
<g>
</g>
<g>
</g>
<g>
</g>
<g>
</g>
<g>
</g>
<g>
</g>
</svg>
