<?xml version="1.0" encoding="iso-8859-1"?>
<!-- Generator: Adobe Illustrator 28.5.0, SVG Export Plug-In . SVG Version: 9.03 Build 54727)  -->
<svg version="1.1" id="Layer_1" xmlns="http://www.w3.org/2000/svg" xmlns:xlink="http://www.w3.org/1999/xlink" x="0px" y="0px"
	 width="38px" height="38px" viewBox="0 0 38 38" enable-background="new 0 0 38 38" xml:space="preserve">
<path d="M19,37C9.1,37,1,28.9,1,19S9.1,1,19,1s18,8.1,18,18S28.9,37,19,37z M19,2C9.6,2,2,9.6,2,19s7.6,17,17,17s17-7.6,17-17
	S28.4,2,19,2z"/>
<circle fill="#FFFFFF" cx="19" cy="19" r="17.5"/>
<path d="M30,29.4c-1.3-4.2-3.6-4.3-4.1-4.4h-0.2c-1.5-1.4-0.5-7.3-0.5-7.3c0-9-6.1-8.1-6.1-8.1h-0.4c0,0-6.1-0.9-6.1,8.1
	c0,0,1,5.9-0.5,7.3h-0.2c-0.5,0.1-2.8,0.3-4.1,4.5c0,0-0.6,1.2-0.4,2.8l0.3,0.3c3,2.5,6.9,4,11.1,4c2.2,0,4.2-0.4,6.1-1.1
	c2-0.7,3.7-1.8,5.3-3.1C30.6,30.7,30,29.4,30,29.4z M23.1,24.6c0,0.2-0.1,0.3-0.2,0.5c-0.5,0.7-2.1,1.7-3.9,1.7s-3.4-1-3.9-1.7
	c-0.1-0.1-0.2-0.3-0.2-0.5c0,0,0.1,0,0.2-0.1c0,0,0.1,0,0.1-0.1c0.3-0.2,0.8-0.5,0.8-1.2c0.5,0.5,1.1,0.9,1.7,1.2
	c0.4,0.2,0.9,0.3,1.3,0.3c0.5,0,0.9-0.1,1.3-0.3c0.6-0.2,1.2-0.7,1.7-1.2C22.1,24.1,22.9,24.5,23.1,24.6z M24.1,18.5
	c-0.1,0.5-0.3,0.8-0.5,1c-0.1,0.1-0.2,0.1-0.2,0.1s-0.1,0-0.1-0.1C22.9,20.8,22,22.2,21,23c-0.6,0.5-1.3,0.7-2,0.7s-1.4-0.3-2-0.8
	c-1-0.8-1.8-2.1-2.3-3.4l-0.1,0.1c-0.1,0-0.2,0-0.3-0.1c-0.2-0.2-0.3-0.5-0.4-1c-0.1-0.6,0-1.1,0.2-1.2h0.1c0.1,0,0.1,0,0.2,0.1
	c0-0.2,0.4-3,2.4-2.8l6.4,3.3l0.5-0.5h0.1C24.1,17.3,24.2,17.9,24.1,18.5z"/>
</svg>
