<svg width="130" height="44" viewBox="0 0 130 44" fill="none" xmlns="http://www.w3.org/2000/svg">
<path d="M46.745 42.0387C45.9404 42.0387 45.2468 41.9129 44.6642 41.6614C44.0816 41.4005 43.6053 41.0372 43.2354 40.5714C42.8747 40.0963 42.6112 39.5467 42.4447 38.9225H41.543L42.3337 36.3374C42.3707 37.1013 42.5418 37.7394 42.847 38.2518C43.1522 38.7548 43.5683 39.1321 44.0954 39.3837C44.6226 39.6352 45.2237 39.7609 45.8988 39.7609C46.9345 39.7609 47.7252 39.4582 48.2709 38.8527C48.8165 38.2378 49.0893 37.3249 49.0893 36.1138V33.5566C49.0893 32.3828 48.8119 31.4932 48.257 30.8877C47.7114 30.2821 46.9161 29.9794 45.871 29.9794C45.2329 29.9794 44.6688 30.1005 44.1787 30.3427C43.6885 30.5849 43.2816 30.9156 42.958 31.3348C42.6435 31.7447 42.4216 32.2152 42.2921 32.7462L41.6956 30.8737H42.4724C42.6297 30.2961 42.8747 29.7744 43.2076 29.3086C43.5498 28.8335 44.0168 28.4562 44.6087 28.1768C45.2006 27.8973 45.9496 27.7576 46.8559 27.7576C48.4743 27.7576 49.7043 28.2699 50.5458 29.2947C51.3967 30.3194 51.8221 31.8146 51.8221 33.7802V35.9461C51.8221 37.9304 51.392 39.4442 50.532 40.4876C49.6719 41.5216 48.4096 42.0387 46.745 42.0387ZM39.6842 41.7312V23.2301H42.3892V27.5899L42.3199 31.5165L42.3337 31.9916V37.6649L42.2921 38.5313L42.4031 41.7312H39.6842Z" fill="white"/>
<path d="M57.3006 28.065V36.5051C57.3006 37.1572 57.3884 37.7301 57.5641 38.2238C57.7491 38.7083 58.0496 39.0855 58.4658 39.3557C58.8819 39.6259 59.4414 39.7609 60.1443 39.7609C60.8101 39.7609 61.3789 39.6398 61.8505 39.3976C62.3314 39.1554 62.7244 38.8294 63.0296 38.4195C63.3348 38.0003 63.5475 37.5345 63.6677 37.0221L64.1116 38.9225H63.529C63.3718 39.4908 63.1129 40.0125 62.7522 40.4876C62.3915 40.9627 61.9106 41.34 61.3095 41.6194C60.7084 41.8989 59.9639 42.0387 59.0762 42.0387C58.0219 42.0387 57.1618 41.8384 56.496 41.4378C55.8394 41.0279 55.3539 40.4363 55.0395 39.6631C54.7343 38.8806 54.5817 37.9304 54.5817 36.8125V28.065H57.3006ZM66.2895 28.065V41.7312H63.5706L63.6816 38.5313L63.5706 38.3636V28.065H66.2895Z" fill="white"/>
<path d="M74.1837 42.0387C72.5653 42.0387 71.3307 41.5263 70.4799 40.5015C69.6383 39.4768 69.2175 37.9816 69.2175 36.016V33.8501C69.2175 31.8658 69.6429 30.3567 70.4938 29.3226C71.3538 28.2792 72.6208 27.7576 74.2946 27.7576C75.0992 27.7576 75.7882 27.888 76.3615 28.1488C76.9441 28.4004 77.4158 28.759 77.7765 29.2248C78.1464 29.6906 78.4099 30.2402 78.5672 30.8737H79.4688L78.7059 33.4029C78.6781 32.6577 78.5163 32.0335 78.2204 31.5305C77.9244 31.0181 77.5175 30.6315 76.9996 30.3706C76.4818 30.1098 75.876 29.9794 75.1824 29.9794C74.1374 29.9794 73.3375 30.2821 72.7826 30.8877C72.2277 31.4932 71.9503 32.3922 71.9503 33.5846V36.1977C71.9503 37.3621 72.2231 38.2471 72.7687 38.8527C73.3236 39.4582 74.1282 39.7609 75.1824 39.7609C75.8205 39.7609 76.38 39.6398 76.8609 39.3976C77.3511 39.1554 77.758 38.8247 78.0816 38.4055C78.4053 37.9863 78.6273 37.5158 78.7475 36.9942L79.3856 38.9225H78.5949C78.4469 39.4908 78.1972 40.0125 77.8458 40.4876C77.5036 40.9627 77.0366 41.34 76.4448 41.6194C75.8529 41.8989 75.0992 42.0387 74.1837 42.0387ZM78.6365 41.7312L78.7475 38.5313L78.7059 37.6649V31.9916L78.7197 31.4606L78.6504 27.5899V23.2301H81.3554V41.7312H78.6365Z" fill="white"/>
<path d="M89.2476 42.0387C87.6292 42.0387 86.3946 41.5263 85.5438 40.5015C84.7023 39.4768 84.2815 37.9816 84.2815 36.016V33.8501C84.2815 31.8658 84.7069 30.3567 85.5577 29.3226C86.4177 28.2792 87.6847 27.7576 89.3586 27.7576C90.1631 27.7576 90.8521 27.888 91.4255 28.1488C92.0081 28.4004 92.4797 28.759 92.8404 29.2248C93.2103 29.6906 93.4739 30.2402 93.6311 30.8737H94.5328L93.7698 33.4029C93.7421 32.6577 93.5802 32.0335 93.2843 31.5305C92.9884 31.0181 92.5815 30.6315 92.0636 30.3706C91.5457 30.1098 90.94 29.9794 90.2464 29.9794C89.2014 29.9794 88.4014 30.2821 87.8465 30.8877C87.2917 31.4932 87.0142 32.3922 87.0142 33.5846V36.1977C87.0142 37.3621 87.287 38.2471 87.8327 38.8527C88.3875 39.4582 89.1921 39.7609 90.2464 39.7609C90.8845 39.7609 91.444 39.6398 91.9249 39.3976C92.415 39.1554 92.8219 38.8247 93.1456 38.4055C93.4693 37.9863 93.6912 37.5158 93.8114 36.9942L94.4495 38.9225H93.6588C93.5109 39.4908 93.2612 40.0125 92.9098 40.4876C92.5676 40.9627 92.1006 41.34 91.5087 41.6194C90.9168 41.8989 90.1631 42.0387 89.2476 42.0387ZM93.7005 41.7312L93.8114 38.5313L93.7698 37.6649V31.9916L93.7837 31.4606L93.7143 27.5899V23.2301H96.4193V41.7312H93.7005Z" fill="white"/>
<path d="M99.9003 41.7312V28.065H102.619V41.7312H99.9003ZM101.26 26.0528C100.723 26.0528 100.321 25.9177 100.053 25.6475C99.7939 25.3681 99.6645 24.9861 99.6645 24.5017V24.4458C99.6645 23.9614 99.7939 23.5841 100.053 23.3139C100.321 23.0345 100.723 22.8947 101.26 22.8947C101.796 22.8947 102.194 23.0345 102.453 23.3139C102.721 23.5841 102.855 23.9614 102.855 24.4458V24.5017C102.855 24.9954 102.721 25.3774 102.453 25.6475C102.194 25.9177 101.796 26.0528 101.26 26.0528Z" fill="white"/>
<path d="M112.041 42.0526C109.877 42.0526 108.254 41.5356 107.172 40.5015C106.099 39.4582 105.563 37.9583 105.563 36.002V33.7662C105.563 31.8379 106.062 30.3474 107.061 29.2947C108.069 28.2327 109.535 27.7017 111.459 27.7017C112.763 27.7017 113.849 27.9439 114.718 28.4283C115.588 28.9034 116.24 29.5788 116.674 30.4545C117.109 31.3302 117.326 32.3689 117.326 33.5706V34.0876C117.326 34.4044 117.312 34.7258 117.285 35.0518C117.257 35.3779 117.22 35.6899 117.174 35.9881H114.677C114.695 35.5036 114.705 35.0472 114.705 34.6186C114.714 34.1901 114.718 33.7988 114.718 33.4448C114.718 32.6903 114.598 32.0521 114.358 31.5305C114.117 31.0088 113.757 30.6129 113.276 30.3427C112.795 30.0632 112.189 29.9235 111.459 29.9235C110.377 29.9235 109.572 30.2356 109.045 30.8597C108.518 31.4746 108.254 32.3549 108.254 33.5007V34.7863L108.268 35.1077V36.3234C108.268 36.8358 108.342 37.3016 108.49 37.7208C108.647 38.14 108.892 38.5033 109.225 38.8107C109.567 39.1088 110.007 39.3417 110.543 39.5094C111.079 39.6678 111.731 39.747 112.499 39.747C113.368 39.747 114.182 39.6352 114.94 39.4116C115.708 39.188 116.429 38.8899 117.104 38.5173L116.855 40.8509C116.244 41.2142 115.532 41.5077 114.718 41.7312C113.914 41.9455 113.021 42.0526 112.041 42.0526ZM107.006 35.9881V33.9339H116.619V35.9881H107.006Z" fill="white"/>
<path d="M124.562 42.0526C123.471 42.0526 122.514 41.9408 121.691 41.7173C120.868 41.4844 120.179 41.2328 119.624 40.9627L119.374 38.4614C120.059 38.8061 120.812 39.1088 121.635 39.3697C122.458 39.6212 123.383 39.747 124.41 39.747C125.399 39.747 126.13 39.6026 126.601 39.3138C127.082 39.0157 127.323 38.5778 127.323 38.0003V37.8885C127.323 37.5158 127.226 37.2084 127.031 36.9662C126.837 36.7147 126.49 36.4911 125.991 36.2955C125.501 36.0998 124.803 35.8996 123.896 35.6946C122.759 35.4338 121.862 35.1263 121.205 34.7723C120.549 34.4183 120.077 33.9852 119.79 33.4728C119.513 32.9511 119.374 32.327 119.374 31.6003V31.4746C119.374 30.2449 119.8 29.3133 120.65 28.6798C121.501 28.0464 122.777 27.7296 124.479 27.7296C125.552 27.7296 126.486 27.8461 127.281 28.079C128.076 28.3119 128.733 28.5774 129.251 28.8755L129.501 31.1532C128.881 30.8178 128.174 30.5383 127.378 30.3147C126.592 30.0819 125.718 29.9654 124.756 29.9654C124.1 29.9654 123.573 30.0306 123.175 30.161C122.777 30.2821 122.491 30.4591 122.315 30.692C122.139 30.9156 122.051 31.1858 122.051 31.5025V31.6003C122.051 31.945 122.144 32.2478 122.329 32.5086C122.514 32.7601 122.842 32.9884 123.314 33.1933C123.795 33.389 124.461 33.5799 125.311 33.7662C126.458 34.0085 127.374 34.2926 128.058 34.6186C128.742 34.9447 129.237 35.3639 129.542 35.8763C129.847 36.3793 130 37.0314 130 37.8326V38.0422C130 39.3743 129.547 40.3758 128.641 41.0465C127.734 41.7173 126.375 42.0526 124.562 42.0526Z" fill="white"/>
<path d="M40.7655 19.8085C39.6913 19.8085 38.8284 19.6481 38.1766 19.3273C37.5247 18.9973 37.0519 18.5069 36.7582 17.8562C36.4644 17.1962 36.3175 16.3759 36.3175 15.3951V7.17326H38.989V15.0789C38.989 15.9038 39.1772 16.5088 39.5536 16.8937C39.93 17.2787 40.5635 17.4712 41.454 17.4712C41.9865 17.4712 42.496 17.4162 42.9826 17.3062C43.4691 17.1962 43.919 17.0404 44.3321 16.8387L44.098 19.1211C43.6573 19.341 43.1478 19.5106 42.5694 19.6298C41.9911 19.7489 41.3897 19.8085 40.7655 19.8085ZM34.2106 8.39691V6.25208H44.2082L43.9741 8.39691H34.2106ZM36.345 6.48582L36.3313 2.78736L39.0303 2.47113L38.9202 6.48582H36.345Z" fill="white"/>
<path d="M49.2347 11.4079L48.6563 9.30434H49.3173C49.6019 8.24109 50.0793 7.40699 50.7495 6.80204C51.4197 6.18792 52.3331 5.88086 53.4899 5.88086C53.7653 5.88086 54.0086 5.90378 54.2197 5.94961C54.4401 5.98627 54.6374 6.0321 54.8119 6.0871L54.9771 8.71314C54.7568 8.63981 54.5089 8.58482 54.2335 8.54815C53.9581 8.50232 53.6597 8.47941 53.3384 8.47941C52.3561 8.47941 51.5069 8.73147 50.7908 9.2356C50.0747 9.73972 49.556 10.4638 49.2347 11.4079ZM46.6458 19.5335V6.0871H49.276L49.1521 10.0055L49.3449 10.198V19.5335H46.6458Z" fill="white"/>
<path d="M57.069 19.5335V6.0871H59.7681V19.5335H57.069ZM58.4185 4.10725C57.8861 4.10725 57.4867 3.97435 57.2205 3.70854C56.9634 3.43356 56.8349 3.05775 56.8349 2.58112V2.52613C56.8349 2.0495 56.9634 1.67828 57.2205 1.41247C57.4867 1.13749 57.8861 1 58.4185 1C58.951 1 59.3458 1.13749 59.6028 1.41247C59.869 1.67828 60.0022 2.0495 60.0022 2.52613V2.58112C60.0022 3.06692 59.869 3.44272 59.6028 3.70854C59.3458 3.97435 58.951 4.10725 58.4185 4.10725Z" fill="white"/>
<path d="M70.2231 19.836C69.4244 19.836 68.7359 19.7123 68.1575 19.4648C67.5883 19.2081 67.1247 18.8507 66.7666 18.3924C66.4086 17.9249 66.1469 17.3841 65.9817 16.77H65.0866L65.844 14.2265C65.8715 14.9781 66.0322 15.6059 66.326 16.1101C66.6197 16.605 67.0237 16.9762 67.5378 17.2237C68.0611 17.4712 68.6624 17.5949 69.3418 17.5949C70.3792 17.5949 71.1733 17.297 71.7241 16.7013C72.2749 16.0963 72.5504 15.2118 72.5504 14.0477V11.4767C72.5504 10.3309 72.2749 9.46016 71.7241 8.86438C71.1825 8.26859 70.3883 7.9707 69.3418 7.9707C68.7175 7.9707 68.1621 8.08986 67.6755 8.32817C67.1889 8.56648 66.785 8.89188 66.4637 9.30434C66.1515 9.70764 65.9312 10.1705 65.8027 10.693L65.1692 8.85063H65.9542C66.1102 8.28234 66.3581 7.76905 66.6978 7.31075C67.0375 6.84329 67.5011 6.47207 68.0886 6.19709C68.6854 5.92211 69.4336 5.78462 70.3333 5.78462C71.9399 5.78462 73.1609 6.28875 73.9963 7.297C74.8409 8.30525 75.2632 9.77639 75.2632 11.7104V13.8415C75.2632 15.7938 74.8409 17.2833 73.9963 18.3099C73.1517 19.3273 71.894 19.836 70.2231 19.836ZM63.2138 24.2632V6.0871H65.9128L65.8027 9.2356L65.844 10.033V15.6701L65.8302 16.1925L65.8991 20.001V24.2632H63.2138Z" fill="white"/>
<path d="M36.7327 23.9595L34.078 22.5225C33.8189 18.9489 32.363 15.7061 30.1148 13.1895L30.4817 11.9567L29.2734 12.3159C28.4888 11.5634 27.6247 10.8902 26.6982 10.3117C26.6528 10.9678 26.5299 11.6031 26.3408 12.2081C29.9674 14.7324 32.3422 18.9318 32.3422 23.6853C32.3422 31.4017 26.0855 37.6603 18.3673 37.6603C10.649 37.6603 4.39234 31.4036 4.39234 23.6853C4.39234 18.9318 6.76719 14.7324 10.3938 12.2081C10.2047 11.6031 10.0818 10.9697 10.0364 10.3117C9.26683 10.79 8.54455 11.3327 7.87142 11.9359L6.63861 11.569L6.99787 12.7773C4.65894 15.2145 3.09525 18.4024 2.70763 21.9458L0 23.4112L2.65469 24.8482C2.91373 28.4237 4.36965 31.6645 6.61782 34.1812L6.251 35.414L7.45922 35.0547C9.89647 37.3937 13.0844 38.9574 16.6277 39.345L18.0931 42.0526L19.5301 39.3979C23.1037 39.1389 26.3465 37.683 28.8631 35.4348L30.0959 35.8016L29.7367 34.5934C32.0756 32.1561 33.6393 28.9682 34.0269 25.4249L36.7327 23.9595Z" fill="url(#paint0_linear_143_436)"/>
<path d="M26.1989 19.8886L18.3653 28.3141L13.0257 23.9595L6.54779 30.2729C6.69338 30.5339 6.84843 30.791 7.01104 31.0406L13.0257 25.1999L16.5539 27.9416L13.7177 26.5046L12.4244 28.004L12.2921 29.4277L10.9987 30.6303L11.7513 29.5185L11.8818 28.5542L8.25708 32.678C10.734 35.4632 14.3436 37.2179 18.3653 37.2179C25.3859 37.2179 31.1585 31.8688 31.8279 25.0241L26.197 19.8924L26.1989 19.8886ZM20.7685 32.3207L17.1628 32.765L19.7437 31.3847L18.3634 29.2935L24.015 34.2777L20.7666 32.3188L20.7685 32.3207ZM22.4759 30.8761L23.1925 32.5192L21.9843 31.4301L19.0176 28.8492L26.2273 21.0761L24.119 24.9333L24.535 28.5523L22.474 30.878L22.4759 30.8761ZM26.7189 22.5074L24.9737 24.1316L26.5752 21.284L31.1377 25.5573L26.717 22.5093L26.7189 22.5074Z" fill="url(#paint1_linear_143_436)"/>
<path d="M8.75247 27.3932L6.27362 29.7548C5.61562 28.4445 5.16183 27.0132 4.95951 25.5043L7.43457 26.7957L4.84039 24.0219C4.84039 23.9104 4.83661 23.7969 4.83661 23.6854C4.83661 23.5417 4.83661 23.3961 4.84417 23.2524L8.75247 27.3932Z" fill="url(#paint2_linear_143_436)"/>
<path d="M18.3656 24.5476C19.2345 24.5476 19.9388 23.8432 19.9388 22.9744C19.9388 22.1056 19.2345 21.4013 18.3656 21.4013C17.4968 21.4013 16.7925 22.1056 16.7925 22.9744C16.7925 23.8432 17.4968 24.5476 18.3656 24.5476Z" fill="url(#paint3_linear_143_436)"/>
<path d="M18.3654 2.36841C14.3097 2.36841 11.0215 5.65652 11.0215 9.71229C11.0215 11.7184 11.827 13.5336 13.1298 14.861L18.1764 20.0645C18.2803 20.1703 18.4505 20.1703 18.5545 20.0645L23.6011 14.861C24.2534 14.1992 24.779 13.4126 25.144 12.5409C25.507 11.6712 25.7074 10.7163 25.7074 9.71229C25.7074 5.65652 22.4193 2.36841 18.3635 2.36841L18.3654 2.36841ZM18.3654 15.1862C15.342 15.1862 12.8916 12.7357 12.8916 9.71229C12.8916 6.6889 15.342 4.23841 18.3654 4.23841C21.3888 4.23841 23.8393 6.6889 23.8393 9.71229C23.8393 12.7357 21.3888 15.1862 18.3654 15.1862Z" fill="url(#paint4_linear_143_436)"/>
<defs>
<linearGradient id="paint0_linear_143_436" x1="5.96937" y1="15.0726" x2="29.4305" y2="39.9246" gradientUnits="userSpaceOnUse">
<stop stop-color="white"/>
<stop offset="1" stop-color="white"/>
</linearGradient>
<linearGradient id="paint1_linear_143_436" x1="10.6558" y1="22.4879" x2="22.9677" y2="38.9272" gradientUnits="userSpaceOnUse">
<stop stop-color="white"/>
<stop offset="1" stop-color="white"/>
</linearGradient>
<linearGradient id="paint2_linear_143_436" x1="5.47324" y1="24.2277" x2="9.54478" y2="26.473" gradientUnits="userSpaceOnUse">
<stop stop-color="white"/>
<stop offset="1" stop-color="white"/>
</linearGradient>
<linearGradient id="paint3_linear_143_436" x1="17.3038" y1="21.8732" x2="19.6241" y2="23.997" gradientUnits="userSpaceOnUse">
<stop stop-color="white"/>
<stop offset="1" stop-color="white"/>
</linearGradient>
<linearGradient id="paint4_linear_143_436" x1="13.408" y1="5.03462" x2="26.0708" y2="14.6102" gradientUnits="userSpaceOnUse">
<stop stop-color="white"/>
<stop offset="1" stop-color="white"/>
</linearGradient>
</defs>
</svg>
